<svg xmlns="http://www.w3.org/2000/svg" width="220" height="180" viewBox="0 0 220 180" fill="none">
  <rect x="118" y="16" width="78" height="128" rx="14" fill="#1D6FEA"/>
  <rect x="126" y="28" width="62" height="104" rx="8" fill="#F4F8FF"/>
  <rect x="134" y="40" width="46" height="10" rx="5" fill="#3D8BFF"/>
  <rect x="134" y="58" width="36" height="7" rx="3.5" fill="#93C5FD"/>
  <rect x="134" y="72" width="46" height="7" rx="3.5" fill="#BFDBFE"/>
  <rect x="134" y="108" width="46" height="16" rx="8" fill="#2563EB"/>
  <rect x="24" y="86" width="64" height="50" rx="10" fill="#2563EB"/>
  <rect x="32" y="96" width="48" height="10" rx="3" fill="#DBEAFE"/>
  <rect x="32" y="112" width="14" height="14" rx="3" fill="#fff"/>
  <rect x="50" y="112" width="14" height="14" rx="3" fill="#93C5FD"/>
  <rect x="68" y="112" width="14" height="14" rx="3" fill="#fff"/>
  <circle cx="92" cy="78" r="16" fill="#FBBF24"/>
  <circle cx="58" cy="70" r="10" fill="#F59E0B"/>
  <circle cx="48" cy="142" r="12" fill="#FECACA"/>
  <rect x="40" y="152" width="16" height="12" rx="4" fill="#2563EB"/>
  <path d="M72 148c10-12 22-10 30-2" stroke="#2563EB" stroke-width="4" stroke-linecap="round"/>
</svg>
