<?xml version="1.0" encoding="UTF-8"?>
<svg width="140px" height="140px" viewBox="0 0 140 140" version="1.1" xmlns="http://www.w3.org/2000/svg" xmlns:xlink="http://www.w3.org/1999/xlink">
    <!-- Generator: Sketch 49 (51002) - http://www.bohemiancoding.com/sketch -->
    <title>no-shuishouyouhui</title>
    <desc>Created with Sketch.</desc>
    <defs>
        <linearGradient x1="100.057102%" y1="49.5461538%" x2="0.0511363636%" y2="49.5461538%" id="linearGradient-1">
            <stop stop-color="#86B1F8" offset="0%"></stop>
            <stop stop-color="#83ACF8" offset="19.02%"></stop>
            <stop stop-color="#799CFA" offset="42.89%"></stop>
            <stop stop-color="#6883FC" offset="69.25%"></stop>
            <stop stop-color="#5564FF" offset="93.92%"></stop>
            <stop stop-color="#5564FF" offset="100%"></stop>
        </linearGradient>
        <linearGradient x1="-0.1190625%" y1="49.959727%" x2="100.07625%" y2="49.959727%" id="linearGradient-2">
            <stop stop-color="#649BF6" offset="0%"></stop>
            <stop stop-color="#6896F2" offset="23.53%"></stop>
            <stop stop-color="#7386E6" offset="53.08%"></stop>
            <stop stop-color="#856DD3" offset="85.72%"></stop>
            <stop stop-color="#8B65CD" offset="93.92%"></stop>
            <stop stop-color="#8B65CD" offset="100%"></stop>
        </linearGradient>
        <linearGradient x1="49.9527273%" y1="100.095197%" x2="49.9527273%" y2="-0.0663755458%" id="linearGradient-3">
            <stop stop-color="#B3B3B3" stop-opacity="0.25" offset="0%"></stop>
            <stop stop-color="#B3B3B3" stop-opacity="0.1" offset="54%"></stop>
            <stop stop-color="#B3B3B3" stop-opacity="0.05" offset="100%"></stop>
        </linearGradient>
        <linearGradient x1="-0.022214941%" y1="49.9821756%" x2="99.9826343%" y2="49.9821756%" id="linearGradient-4">
            <stop stop-color="#FEC471" offset="0%"></stop>
            <stop stop-color="#FEB965" offset="6.804233%"></stop>
            <stop stop-color="#FFAF5A" offset="17.1%"></stop>
            <stop stop-color="#FFAC56" offset="28.09%"></stop>
            <stop stop-color="#FFA34C" offset="100%"></stop>
        </linearGradient>
        <linearGradient x1="0.0188461538%" y1="49.9734615%" x2="99.925%" y2="49.9734615%" id="linearGradient-5">
            <stop stop-color="#FEC471" offset="0%"></stop>
            <stop stop-color="#FEB965" offset="6.804233%"></stop>
            <stop stop-color="#FFAF5A" offset="17.1%"></stop>
            <stop stop-color="#FFAC56" offset="28.09%"></stop>
            <stop stop-color="#FFA34C" offset="100%"></stop>
        </linearGradient>
    </defs>
    <g id="切图" stroke="none" stroke-width="1" fill="none" fill-rule="evenodd">
        <g id="he" transform="translate(-1383.000000, -399.000000)">
            <g id="no-shuishouyouhui" transform="translate(1383.000000, 399.000000)">
                <rect id="Rectangle" fill="#D8D8D8" opacity="0" x="0" y="0" width="140" height="140"></rect>
                <g id="Group-5" transform="translate(18.000000, 12.000000)" fill-rule="nonzero">
                    <g id="XMLID_4685_">
                        <rect id="XMLID_4708_" fill="#E0E0E0" x="41.3825672" y="9.08114286" width="23.1584478" height="1.78971429"></rect>
                        <rect id="XMLID_4707_" fill="#E0E0E0" x="41.3825672" y="15.6434286" width="23.1584478" height="1.78971429"></rect>
                        <rect id="XMLID_4706_" fill="#6C63FF" opacity="0.5" x="41.3825672" y="22.2057143" width="23.1584478" height="1.78971429"></rect>
                        <rect id="XMLID_4705_" fill="#E0E0E0" x="41.3825672" y="28.7017143" width="23.1584478" height="1.78971429"></rect>
                        <rect id="XMLID_4704_" fill="#E0E0E0" x="41.3825672" y="35.264" width="23.1584478" height="1.78971429"></rect>
                        <path d="M86.1204776,0.331428571 L16.0530149,0.331428571 C15.9214328,0.331428571 15.7898507,0.331428571 15.5924776,0.397714286 L15.2635224,0.331428571 L5.39486567,10.5394286 L0.855283582,15.2457143 L0.328955224,15.776 L0.394746269,16.1737143 C0.394746269,16.3062857 0.328955224,16.4388571 0.328955224,16.5714286 L0.328955224,113.878857 C0.328955224,114.939429 1.18423881,115.734857 2.17110448,115.734857 L10.5923582,115.734857 L66.2515821,115.734857 L68.9490149,115.734857 L87.9626269,115.602286 L87.9626269,87.1657143 C87.9626269,87.1657143 87.9626269,87.0994286 87.9626269,87.0994286 C87.9626269,87.0331429 87.9626269,86.9668571 87.9626269,86.9005714 C87.9626269,86.8342857 87.9626269,86.768 87.9626269,86.7017143 C87.9626269,86.6354286 87.9626269,86.6354286 87.9626269,86.5691429 C87.9626269,86.5691429 87.9626269,86.5028571 87.9626269,86.5028571 C87.9626269,86.4365714 87.9626269,86.4365714 87.9626269,86.3702857 C87.9626269,86.3702857 87.9626269,86.304 87.9626269,86.304 C87.9626269,86.2377143 87.9626269,86.2377143 87.9626269,86.1714286 L87.9626269,11.6 L87.9626269,2.12114286 C88.0284179,1.19314286 87.1731343,0.331428571 86.1204776,0.331428571 Z" id="XMLID_4703_" fill="#E0E0E0" opacity="0.402400362"></path>
                        <path d="M66.2515821,107.117714 C66.2515821,96.5782857 74.7386269,87.9611429 85.265194,87.9611429 C85.8573134,87.9611429 86.3836418,87.9611429 86.9757612,88.0274286 L86.9757612,39.904 L3.42113433,39.904 C2.36847761,39.904 1.57898507,40.7657143 1.57898507,41.76 L1.57898507,111.890286 C1.57898507,112.950857 2.43426866,113.746286 3.42113433,113.746286 L67.5016119,113.746286 C66.6463284,111.691429 66.2515821,109.371429 66.2515821,107.117714 Z" id="XMLID_4702_" fill="#FFFFFF"></path>
                        <path d="M84.9362388,113.812571 L14.4740299,113.812571 C13.3555821,113.812571 12.5002985,112.950857 12.5002985,111.824 L12.5002985,56.0114286 C12.5002985,54.8845714 13.3555821,54.0228571 14.4740299,54.0228571 L84.9362388,54.0228571 C86.0546866,54.0228571 86.9099701,54.8845714 86.9099701,56.0114286 L86.9099701,111.824 C86.9099701,112.884571 85.9888955,113.812571 84.9362388,113.812571 Z" id="XMLID_4701_" fill="#FFFFFF"></path>
                        <path d="M85.0020299,1.25942857 L55.6592239,1.25942857 L16.0530149,1.25942857 L15.2635224,1.25942857 L14.737194,1.856 L1.97373134,15.2457143 L1.44740299,15.776 L1.44740299,16.5051429 L1.44740299,42.4228571 L1.44740299,44.2788571 L3.28955224,44.2788571 L55.5934328,44.2788571 L84.9362388,44.2788571 C85.9888955,44.2788571 86.7783881,43.4171429 86.7783881,42.4228571 L86.7783881,3.11542857 C86.9099701,2.12114286 86.0546866,1.25942857 85.0020299,1.25942857 Z" id="XMLID_4700_" fill="#FFFFFF"></path>
                        <g id="XMLID_4696_" transform="translate(57.238209, 14.582857)">
                            <path d="M2.30268657,0.596571429 L22.04,0.596571429 C22.9610746,0.596571429 23.7505672,1.392 23.7505672,2.32 C23.7505672,3.248 22.9610746,4.04342857 22.04,4.04342857 L2.30268657,4.04342857 C1.38161194,4.04342857 0.592119403,3.248 0.592119403,2.32 C0.592119403,1.392 1.38161194,0.596571429 2.30268657,0.596571429 Z" id="XMLID_4699_" fill="#E0E0E0"></path>
                            <path d="M2.30268657,10.5394286 L22.04,10.5394286 C22.9610746,10.5394286 23.7505672,11.3348571 23.7505672,12.2628571 C23.7505672,13.1908571 22.9610746,13.9862857 22.04,13.9862857 L2.30268657,13.9862857 C1.38161194,13.9862857 0.592119403,13.1908571 0.592119403,12.2628571 C0.592119403,11.2685714 1.38161194,10.5394286 2.30268657,10.5394286 Z" id="XMLID_4698_" fill="url(#linearGradient-1)"></path>
                            <path d="M2.30268657,20.416 L22.04,20.416 C22.9610746,20.416 23.7505672,21.2114286 23.7505672,22.1394286 C23.7505672,23.0674286 22.9610746,23.8628571 22.04,23.8628571 L2.30268657,23.8628571 C1.38161194,23.8628571 0.592119403,23.0674286 0.592119403,22.1394286 C0.592119403,21.2114286 1.38161194,20.416 2.30268657,20.416 Z" id="XMLID_4697_" fill="#E0E0E0"></path>
                        </g>
                        <g id="XMLID_4693_" transform="translate(13.816119, 60.982857)" fill="#E0E0E0">
                            <path d="M2.03952239,0.464 L21.7768358,0.464 C22.6979104,0.464 23.487403,1.25942857 23.487403,2.18742857 C23.487403,3.11542857 22.6979104,3.91085714 21.7768358,3.91085714 L2.03952239,3.91085714 C1.11844776,3.91085714 0.328955224,3.11542857 0.328955224,2.18742857 C0.328955224,1.19314286 1.11844776,0.464 2.03952239,0.464 Z" id="XMLID_4695_"></path>
                            <path d="M2.03952239,6.29714286 L59.0803582,6.29714286 C60.0014328,6.29714286 60.7909254,7.09257143 60.7909254,8.02057143 C60.7909254,8.94857143 60.0014328,9.744 59.0803582,9.744 L2.03952239,9.744 C1.11844776,9.744 0.328955224,8.94857143 0.328955224,8.02057143 C0.328955224,7.09257143 1.11844776,6.29714286 2.03952239,6.29714286 Z" id="XMLID_4694_"></path>
                        </g>
                        <g id="XMLID_4690_" transform="translate(13.816119, 78.880000)" fill="#E0E0E0">
                            <path d="M2.03952239,5.96571429 L21.7768358,5.96571429 C22.6979104,5.96571429 23.487403,6.76114286 23.487403,7.68914286 C23.487403,8.61714286 22.6979104,9.41257143 21.7768358,9.41257143 L2.03952239,9.41257143 C1.11844776,9.41257143 0.328955224,8.61714286 0.328955224,7.68914286 C0.328955224,6.69485714 1.11844776,5.96571429 2.03952239,5.96571429 Z" id="XMLID_4692_"></path>
                            <path d="M2.03952239,0.0662857143 L59.0803582,0.0662857143 C60.0014328,0.0662857143 60.7909254,0.861714286 60.7909254,1.78971429 C60.7909254,2.71771429 60.0014328,3.51314286 59.0803582,3.51314286 L2.03952239,3.51314286 C1.11844776,3.51314286 0.328955224,2.71771429 0.328955224,1.78971429 C0.328955224,0.861714286 1.11844776,0.0662857143 2.03952239,0.0662857143 Z" id="XMLID_4691_"></path>
                        </g>
                        <path d="M15.8556418,97.1085714 L61.9751642,97.1085714 C62.8962388,97.1085714 63.6857313,97.904 63.6857313,98.832 C63.6857313,99.76 62.8962388,100.555429 61.9751642,100.555429 L15.8556418,100.555429 C14.9345672,100.555429 14.1450746,99.76 14.1450746,98.832 C14.1450746,97.904 14.9345672,97.1085714 15.8556418,97.1085714 Z" id="XMLID_4689_" fill="#E0E0E0"></path>
                        <path d="M48.8169552,46.2674286 L10.3949851,46.2674286 C9.34232836,46.2674286 8.55283582,45.4057143 8.55283582,44.4114286 L8.55283582,9.87657143 C8.55283582,9.41257143 8.68441791,9.01485714 8.94758209,8.68342857 L9.4081194,8.08685714 C9.73707463,7.62285714 10.263403,7.424 10.8555224,7.424 L13.3555821,7.424 L48.8169552,7.424 C49.8696119,7.424 50.6591045,8.28571429 50.6591045,9.28 L50.6591045,44.4114286 C50.6591045,45.472 49.8696119,46.2674286 48.8169552,46.2674286 Z" id="XMLID_4688_" fill="url(#linearGradient-2)"></path>
                        <polygon id="XMLID_4687_" fill="url(#linearGradient-3)" points="1.18423881 16.1074286 15.6582687 16.1074286 15.6582687 0.928"></polygon>
                        <polygon id="XMLID_4686_" fill="#FCFCFC" points="1.51319403 15.776 15.3293134 15.776 15.3293134 1.25942857"></polygon>
                    </g>
                    <g id="Group-3" transform="translate(58.000000, 61.480000)">
                        <circle id="XMLID_3199_" fill="url(#linearGradient-4)" cx="23.2" cy="23.2" r="23.2"></circle>
                        <circle id="XMLID_3195_" fill="url(#linearGradient-5)" cx="22.9063291" cy="22.9063291" r="15.8582278"></circle>
                        <g id="Group-2" transform="translate(15.858228, 13.508861)" fill="#FFFFFF">
                            <path d="M6.95616951,8.30669078 C6.61908641,8.30669078 6.2820033,8.18362869 6.03685195,7.906739 L0.367727023,2.21511754 C0.122575674,1.96899337 0,1.63057263 0,1.2921519 C0,0.953731163 0.122575674,0.615310428 0.398370941,0.369186257 C0.643522289,0.123062086 0.980605394,0 1.3176885,0 C1.6547716,0 1.99185471,0.123062086 2.23700605,0.399951778 L7.90613099,6.09157324 C8.15128233,6.33769741 8.27385801,6.67611814 8.27385801,7.01453888 C8.27385801,7.35295961 8.15128233,7.69138035 7.87548707,7.93750452 C7.63033572,8.18362869 7.29325261,8.30669078 6.95616951,8.30669078 Z" id="XMLID_3860_"></path>
                            <path d="M2.51280132,15.0751055 C1.80799119,15.0751055 1.22575674,14.398264 1.22575674,13.690657 C1.22575674,12.98305 1.80799119,12.3062086 2.51280132,12.3062086 L11.0318107,12.3062086 C11.7366208,12.3062086 12.3188553,12.98305 12.3188553,13.690657 C12.3188553,14.398264 11.7366208,15.0751055 11.0318107,15.0751055 L2.51280132,15.0751055 Z" id="XMLID_3844_"></path>
                            <path d="M2.51280132,11.6908981 C1.80799119,11.6908981 1.22575674,11.0140567 1.22575674,10.3064497 C1.22575674,9.59884268 1.80799119,8.92200121 2.51280132,8.92200121 L11.0318107,8.92200121 C11.7366208,8.92200121 12.3188553,9.59884268 12.3188553,10.3064497 C12.3188553,11.0140567 11.7366208,11.6908981 11.0318107,11.6908981 L2.51280132,11.6908981 Z" id="XMLID_3833_"></path>
                            <path d="M6.80294992,7.99903556 C6.46586681,7.99903556 6.12878371,7.99903556 5.88363236,7.72214587 C5.63848101,7.4760217 5.51590534,7.19913201 5.51590534,6.86071127 C5.51590534,6.52229054 5.66912493,6.21463532 5.91427628,5.96851115 L11.644689,0.369186257 C11.8898404,0.123062086 12.1962796,0 12.5640066,0 C12.9317336,0 13.2381728,0.153827607 13.4833242,0.399951778 C13.7284755,0.646075949 13.8510512,0.984496685 13.8510512,1.32291742 C13.8510512,1.66133816 13.6978316,1.99975889 13.4526802,2.24588306 L7.72226747,7.72214587 C7.47711613,7.99903556 7.17067694,7.99903556 6.80294992,7.99903556 Z" id="XMLID_3814_"></path>
                            <path d="M6.74166208,19.1669198 C6.03685195,19.1669198 5.51590534,18.5823749 5.51590534,17.8747679 L5.51590534,6.82994575 C5.51590534,6.12233876 6.03685195,5.53779385 6.74166208,5.53779385 C7.44647221,5.53779385 7.96741882,6.12233876 7.96741882,6.82994575 L7.96741882,17.8747679 C7.96741882,18.5823749 7.44647221,19.1669198 6.74166208,19.1669198 Z" id="XMLID_3802_"></path>
                        </g>
                        <path d="M23.4632094,4.6988164 C33.8201793,4.66835472 42.2580637,13.1062392 42.2885254,23.4632092 C42.3189871,33.8201793 33.8811027,42.2580637 23.5241327,42.2885254 C13.1671627,42.3189871 4.72927837,33.8811026 4.69881669,23.5241326 C4.66835502,13.1671625 13.0757777,4.6988164 23.4632094,4.6988164 Z M23.5241327,39.3032811 C32.2361722,39.2728194 39.3337428,32.1752487 39.3337428,23.4632092 C39.3337428,14.7511697 32.2057105,7.65359903 23.493671,7.65359903 C14.7816316,7.65359903 7.68406098,14.7816314 7.68406098,23.4936709 C7.68406098,32.2361721 14.7816316,39.3337427 23.5241327,39.3032811 Z" id="XMLID_3196_" fill="#FFFFFF"></path>
                    </g>
                </g>
            </g>
        </g>
    </g>
</svg>