<?xml version="1.0" encoding="UTF-8"?>
<svg width="140px" height="140px" viewBox="0 0 140 140" version="1.1" xmlns="http://www.w3.org/2000/svg" xmlns:xlink="http://www.w3.org/1999/xlink">
    <!-- Generator: Sketch 49 (51002) - http://www.bohemiancoding.com/sketch -->
    <title>no-gudong</title>
    <desc>Created with Sketch.</desc>
    <defs>
        <linearGradient x1="0.0622360248%" y1="49.9970205%" x2="100.032795%" y2="49.9970205%" id="linearGradient-1">
            <stop stop-color="#649BF6" offset="0%"></stop>
            <stop stop-color="#6896F2" offset="23.53%"></stop>
            <stop stop-color="#7386E6" offset="53.08%"></stop>
            <stop stop-color="#856DD3" offset="85.72%"></stop>
            <stop stop-color="#8B65CD" offset="93.92%"></stop>
            <stop stop-color="#8B65CD" offset="100%"></stop>
        </linearGradient>
        <polygon id="path-2" points="0 0 41 0 41 41 0 41"></polygon>
        <linearGradient x1="0.0245762712%" y1="50.0135593%" x2="100.001271%" y2="50.0135593%" id="linearGradient-4">
            <stop stop-color="#FEC471" offset="0%"></stop>
            <stop stop-color="#FEB965" offset="6.804233%"></stop>
            <stop stop-color="#FFAF5A" offset="17.1%"></stop>
            <stop stop-color="#FFAC56" offset="28.09%"></stop>
            <stop stop-color="#FFA34C" offset="100%"></stop>
        </linearGradient>
        <rect id="path-5" x="0" y="0" width="140" height="140"></rect>
    </defs>
    <g id="切图" stroke="none" stroke-width="1" fill="none" fill-rule="evenodd">
        <g id="he" transform="translate(-1337.000000, -818.000000)">
            <g id="Group-10" transform="translate(1337.000000, 818.000000)">
                <g id="Group-4" transform="translate(9.000000, 12.000000)">
                    <g id="人像" transform="translate(27.000000, 3.000000)"></g>
                    <g id="人才" transform="translate(0.000000, 68.000000)"></g>
                    <g id="投资者" fill-rule="nonzero">
                        <path d="M68.6957832,60.4075472 L70.1976285,60.4075472 L78.5667524,67.5050992 C78.7769729,67.5130807 78.8979024,67.5210075 78.920366,67.5288123 C81.143429,68.3199085 83.2970212,69.2844907 85.492296,70.1380418 C87.7570414,71.0193508 90.0495751,71.8382048 92.3212676,72.6986953 C94.1275064,73.3856999 95.933745,74.079644 97.7260896,74.7944064 C100.039464,75.717352 102.248633,76.806844 104.270231,78.2710659 C106.090364,79.596499 107.521461,81.2272675 108.334268,83.267463 C108.702463,84.1695903 108.688569,85.2105063 108.792775,86.2028462 C108.973399,88.0140401 109.070658,89.839113 109.258229,91.6572463 C109.487482,93.7945939 109.772312,95.9250021 110.022407,98.0623498 L110.050195,98.3538063 C110.209978,100.518912 110.362813,102.663199 110.53649,104.814425 C110.65459,106.306405 110.772691,107.798385 110.974156,109.269546 C111.286774,111.649774 108.70941,114.127154 106.159835,114.106336 C92.1823263,113.981426 24.9624587,114.030002 5.32308655,114.078578 C3.57937153,114.078578 2.07185689,113.703848 1.09926684,112.31596 C-0.0678412302,110.636616 -0.220676872,108.707451 0.244777025,106.750529 C0.293406582,106.556225 0.397612559,106.36886 0.397612559,106.181495 C0.571289331,104.058026 0.689389576,101.934557 0.897801746,99.8180282 C1.08537268,98.0137737 1.38409677,96.2164587 1.62029715,94.4191436 L1.65503255,94.1207477 C1.81481516,92.0042184 1.78702696,89.8460525 2.18301006,87.7711598 C2.565099,85.7517827 2.23858658,83.6074956 3.6210539,81.7269073 C5.0104683,79.8740767 6.64997723,78.3543392 8.57431611,77.1399372 C11.5059804,75.2801672 14.8405749,74.2670089 18.0779104,73.038728 C20.6274858,72.0672063 23.1353787,70.9985325 25.6780071,69.9853742 C27.8107582,69.1387625 29.9643505,68.2990902 32.1248898,67.5149334 C32.1942526,67.488951 32.4766638,67.4658376 32.9424058,67.4453759 L41.2411067,60.4075472 L41.9132253,60.4075472 L42.8398789,60.182276 C42.3298746,57.347951 40.5696516,57.1270376 39.837009,55.1196751 C39.5472005,52.0996706 39.2610559,49.0772278 38.9724687,46.053444 C38.9850479,46.1981594 36.9026526,45.6741603 36.6290871,45.5071342 C33.6933873,43.6692363 33.6312244,36.2092608 33.3499649,33.1048898 C33.2207541,31.6873616 35.1959214,30.5251274 34.6486683,27.9254926 C31.4306098,12.7026999 36.0381124,5.57360699 43.3287551,3.21427035 C48.3889842,1.1660657 57.8339553,-2.63128115 66.6447185,2.78402543 L68.8314105,4.80370137 L72.3691987,5.4146271 C74.142978,6.4340966 75.2774199,9.82850796 75.2774199,9.82850796 C76.2077869,13.5768442 76.3024356,13.8878543 76.2153588,17.7349433 C76.1805524,19.2157464 75.3283471,26.0740618 75.5585573,28.1750564 C75.7500531,29.9098126 76.182995,30.0469692 76.8695955,31.4769329 C78.0613153,33.9629412 77.6631798,37.3958784 77.2041027,39.9023687 C76.9528865,41.277104 76.4228533,43.2291161 75.6193768,44.3503862 C74.7311438,45.5829665 72.9585859,45.5928418 72.1724515,47.0338999 C71.0405742,49.1045373 71.682354,52.0153041 70.9683969,54.2591854 C70.1572263,56.7979837 68.0974247,56.975007 67.9407351,60.3002915 C68.1928086,60.3360188 68.4444279,60.3717838 68.6957832,60.4075472 Z" id="Combined-Shape" fill="url(#linearGradient-1)"></path>
                        <path d="M48.7838995,110.578187 C49.131253,108.024473 49.5480774,105.491578 49.9232194,102.944803 C50.1038432,101.667946 50.2219435,100.38415 50.374779,99.1072926 L51.1597981,93.2087682 C51.3126336,92.0707001 51.4654693,90.9187529 51.5905166,89.7737453 C51.7641934,88.0597036 51.8892407,86.3387223 52.0768116,84.6246806 C52.1740706,83.7086744 52.3685887,82.7996078 52.4589006,81.8836016 C52.6534186,79.9960738 51.8753466,78.295911 51.3682103,76.5402326 C51.2014806,75.9156829 50.958333,75.2911334 50.8749682,74.6596443 C50.8541269,74.4584005 51.25011,74.0073369 51.4515751,74.0073369 C55.1335232,73.9657002 58.8085243,73.9795791 62.4835252,73.9795791 C63.0115027,73.9795791 63.2060208,74.1044891 63.0115027,74.6943415 C62.5946784,75.9365013 62.2751132,77.19254 61.9277595,78.4416392 C61.788818,78.9412789 61.6151413,79.4409186 61.5317764,79.9544373 C61.2399994,81.7031762 61.4900939,83.4241575 61.8513418,85.1590175 C62.1153305,86.3872984 62.1986953,87.6433372 62.3167955,88.8924363 C62.4835252,90.7105697 62.5807842,92.5356425 62.8030906,94.3468365 C63.1434971,96.9977027 63.5672685,99.6346901 63.9354632,102.278617 C64.10914,103.458322 64.2550286,104.638027 64.3661817,105.817731 C64.5468056,107.601168 64.6788,109.391543 64.8524768,111.16804 C64.9566829,112.257532 65.1025713,113.340085 65.2762482,114.415698 C65.3040365,114.623881 65.5819194,114.790428 65.9223258,115.172097 C66.2178176,114.043282 71.4755783,115.657858 65.5263427,115.657858 C45.9008646,115.657858 47.1166022,112.972294 47.582056,114.630821 C47.6306856,114.839004 47.9502508,114.956974 48.2837103,115.234552 C48.4643342,113.534389 48.5824344,112.042409 48.7838995,110.578187 Z" id="Shape-Copy" fill="#FFFFFF"></path>
                    </g>
                    <g id="股票" transform="translate(79.000000, 75.000000)">
                        <mask id="mask-3" fill="white">
                            <use xlink:href="#path-2"></use>
                        </mask>
                        <g id="Clip-2"></g>
                    </g>
                    <g id="Group" transform="translate(79.000000, 72.000000)">
                        <rect id="Rectangle-3" fill="#FFFFFF" x="4.82653061" y="4.82653061" width="33.7857143" height="25.4489796" rx="8"></rect>
                        <path d="M38.9708411,0 L4.02914597,0 C1.80154466,0 0,1.80736508 0,4.02964603 L0,30.9107889 C0,33.1386667 1.80714079,34.9407079 4.02914597,34.9407079 L19.4854547,34.9407079 L19.4854547,38.970354 L14.7791769,38.970354 C13.6653421,38.970354 12.7645697,39.8712381 12.7645697,40.9851429 C12.7645697,42.0991159 13.6653421,43 14.7791769,43 L28.2208784,43 C29.334645,43 30.2354173,42.0991159 30.2354173,40.9851429 C30.2354173,39.8712381 29.334645,38.970354 28.2208784,38.970354 L23.5146006,38.970354 L23.5146006,34.9407079 L38.9708411,34.9407079 C41.1984424,34.9407079 42.999987,33.1332746 42.999987,30.9107889 L42.999987,4.02964603 C43.0055832,1.80176825 41.1984424,0 38.9708411,0 Z M35.7168957,18.0028032 C35.7168957,19.1164349 34.8161234,20.0175921 33.7023568,20.0175921 C32.5885903,20.0175921 31.6877497,19.1164349 31.6877497,18.0028032 L31.6877497,15.3435603 L24.6886279,22.5675603 C23.9296697,23.3537778 22.679344,23.3919317 21.8767087,22.6493968 L18.2570357,19.3241317 L10.8318572,26.3078778 C10.4442228,26.673719 9.94760031,26.8539095 9.4506366,26.8539095 C8.91566014,26.8539095 8.3750193,26.6408889 7.98206172,26.2204444 C7.21778038,25.4067206 7.26118452,24.1347397 8.06921122,23.3700222 L16.8592996,15.1033063 C17.6291771,14.3824079 18.8248382,14.3714873 19.605635,15.0867889 L23.159724,18.3520587 L28.9414144,12.3784714 L25.714972,12.3784714 C24.6011372,12.3784714 23.7003649,11.4775873 23.7003649,10.3636825 C23.7003649,9.24977778 24.6011372,8.3488254 25.714972,8.3488254 L33.6970337,8.3488254 C33.8226054,8.3488254 33.9425128,8.3651381 34.0571652,8.38697937 C34.0955874,8.39257619 34.1280723,8.40349683 34.1664945,8.41441746 C34.2483208,8.43632698 34.3301472,8.45816825 34.4119735,8.49065714 C34.4447996,8.50164603 34.4831536,8.51256667 34.5159797,8.52908413 C34.6196446,8.57815873 34.7233777,8.62716508 34.8161234,8.69275714 C34.8323658,8.70374603 34.8433533,8.71466667 34.8598687,8.7255873 C34.9416951,8.78558254 35.0181983,8.84585079 35.0891054,8.91676667 L35.1656086,8.99327937 C35.2255964,9.0532746 35.2746649,9.11886667 35.3293295,9.18978254 C35.3511681,9.21694762 35.3730066,9.24438571 35.3893173,9.27721587 C35.4495098,9.37529683 35.5094976,9.47371905 35.553243,9.58272063 C35.5585662,9.58831746 35.5585662,9.59370952 35.5585662,9.60463016 C35.6023115,9.70830794 35.6350694,9.81765079 35.6569079,9.9269254 C35.6622993,9.95975556 35.6678954,9.99224444 35.6732186,10.0306714 C35.689734,10.1234286 35.7006533,10.2218508 35.7006533,10.3146079 C35.7006533,10.3364492 35.7059764,10.3527619 35.7059764,10.3746032 L35.7059764,18.0028032 L35.7168957,18.0028032 Z" id="Fill-1" fill="url(#linearGradient-4)"></path>
                    </g>
                </g>
                <g id="Rectangle-10" opacity="0">
                    <use fill="#D8D8D8" fill-rule="evenodd" xlink:href="#path-5"></use>
                    <rect stroke="#979797" stroke-width="1" x="0.5" y="0.5" width="139" height="139"></rect>
                </g>
            </g>
        </g>
    </g>
</svg>